PathFileType	4	(X/Y/Z)	C:/Users/opensim2020/Desktop/walking_exp_matlab/subject03_walking12_straight_04.trc																																																																																																																																														
DataRate	CameraRate	NumFrames	NumMarkers	Units	OrigDataRate	OrigDataStartFrame	OrigNumFrames																																																																																																																																										
100	100	6	48	mm	100	2196	202																																																																																																																																										
Frame#	Time	LFHD			RFHD			LBHD			RBHD			C7			T10			CLAV			STRN			RBAK			LSHO			LUPA			LELB			LFRM			LWRA			LWRB			LFIN			RSHO			RUPA			RELB			RFRM			RWRA			RWRB			RFIN			LASI			RASI			LPSI			RPSI			LTHI			LKNE			LTIB			LANK			LHEE			LTOE			RTHI			RKNE			RTIB			RANK			RHEE			RTOE			*39			*40			*41			*42			*43			*44			*45			*46			*47		
		X1	Y1	Z1	X2	Y2	Z2	X3	Y3	Z3	X4	Y4	Z4	X5	Y5	Z5	X6	Y6	Z6	X7	Y7	Z7	X8	Y8	Z8	X9	Y9	Z9	X10	Y10	Z10	X11	Y11	Z11	X12	Y12	Z12	X13	Y13	Z13	X14	Y14	Z14	X15	Y15	Z15	X16	Y16	Z16	X17	Y17	Z17	X18	Y18	Z18	X19	Y19	Z19	X20	Y20	Z20	X21	Y21	Z21	X22	Y22	Z22	X23	Y23	Z23	X24	Y24	Z24	X25	Y25	Z25	X26	Y26	Z26	X27	Y27	Z27	X28	Y28	Z28	X29	Y29	Z29	X30	Y30	Z30	X31	Y31	Z31	X32	Y32	Z32	X33	Y33	Z33	X34	Y34	Z34	X35	Y35	Z35	X36	Y36	Z36	X37	Y37	Z37	X38	Y38	Z38	X39	Y39	Z39	X40	Y40	Z40	X41	Y41	Z41	X42	Y42	Z42	X43	Y43	Z43	X44	Y44	Z44	X45	Y45	Z45	X46	Y46	Z46	X47	Y47	Z47	X48	Y48	Z48
																																																																																																																																																	
51	0.5	-856.93335	1607.11951	-1474.18188	-878.19073	1613.17236	-1343.17261	-985.29211	1566.35803	-1490.33765	-1001.21796	1571.56348	-1360.41138	-1024.32983	1406.31274	-1420.06348	-1063.35095	1093.06702	-1412.2522	-905.22235	1326.88623	-1416.49243	-863.06989	1161.40454	-1419.19495	-1076.59546	1232.04358	-1314.88684	-951.11627	1360.47693	-1574.49695	-984.27808	1162.94763	-1639.03259	-991.72089	1039.20288	-1651.62854	-981.41431	908.61707	-1653.72742	-972.66388	788.98022	-1625.80798	-1001.59088	796.53082	-1673.1637	-993.52405	712.9549	-1665.35071	-947.22253	1356.4729	-1259.43359	-910.70691	1139.96936	-1181.70789	-873.81342	1033.32751	-1171.38672	-821.85339	907.11163	-1177.97632	-773.11493	825.00128	-1223.03198	-795.03082	810.2995	-1175.88135	-753.76154	749.69257	-1193.00549	-896.57965	933.23395	-1531.98767	-904.26306	924.82184	-1295.05713	-1061.71533	946.76978	-1487.34729	-1062.08667	957.14697	-1337.52893	-865.84753	641.86792	-1588.2406	-794.07587	481.23685	-1550.26575	-788.25854	286.42422	-1561.65527	-743.91302	79.19737	-1533.6272	-774.94635	32.97254	-1496.42896	-593.42505	76.34109	-1500.35107	-995.59381	634.21234	-1263.14954	-1020.97552	457.36295	-1303.90051	-1107.29639	283.81644	-1300.13489	-1191.30237	82.82498	-1346.98157	-1244.17871	57.65356	-1393.06433	-1057.56323	36.65494	-1369.61951	NaN	NaN	NaN	NaN	NaN	NaN	NaN	NaN	NaN	NaN	NaN	NaN	NaN	NaN	NaN	NaN	NaN	NaN	NaN	NaN	NaN	NaN	NaN	NaN	NaN	NaN	NaN
52	0.51	-842.92358	1605.21851	-1475.38843	-864.50226	1611.40869	-1344.44238	-970.82062	1563.80103	-1491.36292	-987.30908	1569.31079	-1361.9314	-1010.15424	1404.32532	-1421.64771	-1049.49915	1091.20435	-1414.00647	-890.87683	1324.70557	-1417.34155	-849.24512	1159.08411	-1419.48804	-1063.12292	1230.45874	-1316.2876	-935.86456	1357.90234	-1575.75806	-971.21716	1160.40735	-1639.49731	-980.91217	1036.80457	-1651.68701	-975.73322	905.85541	-1653.77612	-973.16327	785.52588	-1625.56445	-1001.34558	794.96405	-1674.23792	-998.9718	710.51721	-1665.83105	-933.21497	1354.55054	-1260.41516	-895.6665	1138.62415	-1182.80261	-857.31097	1032.54456	-1172.58777	-802.25751	907.72125	-1180.06433	-751.6134	827.36194	-1225.67664	-773.21729	811.66028	-1178.81226	-729.88495	752.86871	-1196.12378	-881.36566	930.84387	-1532.39465	-891.74707	922.79498	-1295.29065	-1046.95251	944.3916	-1489.93604	-1049.14624	954.9895	-1340.0376	-853.77032	637.94495	-1590.94202	-780.54816	478.63248	-1549.776	-767.03357	286.07022	-1562.92261	-712.37366	80.64738	-1536.12915	-742.01953	33.04586	-1500.25598	-562.09845	83.79487	-1502.40076	-985.88696	633.27051	-1263.14563	-1012.39093	456.50256	-1304.00464	-1102.38831	284.3161	-1300.40857	-1190.33069	84.8458	-1347.09912	-1243.55139	60.71755	-1393.28821	-1057.3916	36.63578	-1369.59827	NaN	NaN	NaN	NaN	NaN	NaN	NaN	NaN	NaN	NaN	NaN	NaN	NaN	NaN	NaN	NaN	NaN	NaN	NaN	NaN	NaN	NaN	NaN	NaN	NaN	NaN	NaN
53	0.52	-828.80652	1603.39795	-1476.64795	-850.66333	1609.72705	-1345.74548	-956.84058	1561.85669	-1493.19641	-973.35773	1567.34827	-1363.42725	-995.78961	1402.31079	-1423.13293	-1035.44641	1089.42004	-1415.83459	-876.50897	1322.78101	-1418.26831	-835.11157	1157.0321	-1419.8241	-1049.5885	1228.99048	-1317.83533	-920.50964	1355.44543	-1576.98535	-958.16925	1158.11426	-1640.04773	-969.97693	1034.77722	-1651.94299	-969.80951	903.69427	-1653.96338	-973.3891	782.8775	-1625.85278	-999.66724	793.85425	-1675.36523	-1003.76337	708.94885	-1666.20728	-919.57788	1353.04883	-1261.43652	-880.93146	1137.35071	-1183.92554	-841.20386	1031.77209	-1173.99731	-783.34863	908.39313	-1182.08228	-730.31628	830.00189	-1228.05322	-752.0769	813.12073	-1181.67822	-706.84808	756.15118	-1198.99805	-866.06561	928.51379	-1532.64514	-879.00464	920.8775	-1295.48547	-1032.2738	942.41058	-1492.76318	-1036.00598	952.99445	-1342.62012	-841.55182	634.27448	-1594.07959	-766.98108	476.43759	-1549.86011	-746.43152	286.00195	-1564.01196	-684.70544	82.22798	-1538.05823	-713.06244	33.49031	-1502.85913	-534.36755	90.21529	-1504.74268	-975.2229	632.13904	-1264.25806	-1003.74207	455.34616	-1304.26575	-1096.84155	284.96823	-1300.63062	-1189.11487	87.483	-1346.93176	-1242.82629	64.45308	-1393.28174	-1057.15332	36.64465	-1369.61279	NaN	NaN	NaN	NaN	NaN	NaN	NaN	NaN	NaN	NaN	NaN	NaN	NaN	NaN	NaN	NaN	NaN	NaN	NaN	NaN	NaN	NaN	NaN	NaN	NaN	NaN	NaN
54	0.53	-814.60944	1601.72937	-1477.86975	-836.84271	1608.22754	-1347.0376	-942.32007	1559.83081	-1494.2406	-959.44952	1565.72119	-1364.92822	-981.39728	1400.55872	-1424.79553	-1021.0835	1087.7782	-1417.66895	-862.01062	1320.91211	-1419.14478	-821.18317	1155.10608	-1420.14014	-1035.8606	1227.52734	-1319.51746	-905.08173	1353.34448	-1578.2738	-945.08704	1156.18896	-1640.78772	-958.89935	1033.11609	-1652.3562	-963.2785	902.04877	-1654.42065	-973.20526	781.48505	-1626.99841	-997.29852	793.59009	-1676.63464	-1007.62616	708.83905	-1666.54224	-906.15295	1351.42297	-1262.8053	-866.60437	1136.27112	-1185.03906	-825.58008	1031.20996	-1175.41199	-765.13434	909.23694	-1184.10999	-709.93549	832.75116	-1230.40503	-731.73633	814.73096	-1184.50623	-684.17822	759.57574	-1201.96411	-850.62744	926.46613	-1532.86218	-866.00604	919.16162	-1295.69385	-1017.24683	940.76172	-1495.47388	-1022.672	951.0943	-1345.22009	-829.17456	631.27448	-1596.1532	-752.43182	474.70877	-1549.54688	-726.31433	286.07596	-1564.74683	-660.91498	83.60463	-1539.50916	-688.13788	33.77714	-1504.22424	-510.44339	94.7628	-1507.08911	-964.30969	631.15759	-1264.79565	-994.04095	454.33011	-1304.37891	-1090.74915	285.69366	-1300.76575	-1187.44629	90.41245	-1346.75891	-1241.75977	68.52383	-1393.0166	-1056.81702	36.62645	-1369.48889	NaN	NaN	NaN	NaN	NaN	NaN	NaN	NaN	NaN	NaN	NaN	NaN	NaN	NaN	NaN	NaN	NaN	NaN	NaN	NaN	NaN	NaN	NaN	NaN	NaN	NaN	NaN
55	0.54	-800.35663	1600.27026	-1479.09094	-822.88721	1606.97388	-1348.31116	-928.30347	1558.38477	-1496.02209	-945.41138	1564.28369	-1366.36523	-966.92712	1399.02319	-1426.52466	-1006.50732	1086.23682	-1419.5116	-847.41827	1319.39233	-1420.22131	-806.6156	1153.48828	-1420.58008	-1021.92859	1226.11523	-1321.36316	-889.65186	1351.55005	-1579.58179	-931.82593	1154.60449	-1641.68555	-947.23108	1031.70813	-1652.65186	-956.11243	901.00116	-1655.10449	-971.11346	780.68549	-1627.59875	-993.7583	793.89484	-1678.03015	-1010.33228	709.46826	-1667.1698	-892.67346	1350.17236	-1263.99731	-852.49084	1135.39697	-1186.28894	-810.5033	1030.78687	-1176.90247	-747.54138	910.23535	-1186.07495	-690.38239	835.62207	-1232.63196	-712.17657	816.52893	-1187.28821	-662.8634	763.29095	-1204.57874	-834.94269	924.78094	-1532.98975	-852.71045	917.54211	-1295.99182	-1001.39215	939.37195	-1497.82617	-1008.99115	949.3833	-1347.73547	-815.12653	629.51678	-1596.96362	-738.15002	473.85513	-1549.97791	-708.09955	286.04855	-1565.67249	-641.14502	83.88254	-1540.37256	-667.61261	33.45877	-1505.05994	-490.72644	97.07581	-1508.79138	-952.84283	630.30212	-1265.37988	-983.43597	453.26047	-1304.47644	-1083.85144	286.612	-1300.86133	-1185.46631	93.68037	-1346.34326	-1240.36279	73.24088	-1392.50244	-1056.57568	36.60218	-1369.54138	NaN	NaN	NaN	NaN	NaN	NaN	NaN	NaN	NaN	NaN	NaN	NaN	NaN	NaN	NaN	NaN	NaN	NaN	NaN	NaN	NaN	NaN	NaN	NaN	NaN	NaN	NaN
56	0.55	-786.08038	1599.02917	-1480.25598	-808.94818	1605.89648	-1349.55371	-913.70197	1556.88257	-1496.96924	-931.40363	1563.16077	-1367.77576	-952.37531	1397.66565	-1428.33887	-991.95215	1084.86023	-1421.40027	-832.86353	1318.03894	-1421.28162	-792.16956	1152.16931	-1421.16418	-1007.85193	1224.7865	-1323.34216	-874.15918	1350.09753	-1580.93677	-918.2348	1153.43347	-1642.71167	-935.44708	1030.80139	-1653.36646	-948.07538	900.38324	-1655.98743	-967.52954	780.23694	-1627.93359	-988.71045	794.63104	-1679.59363	-1011.89227	711.26849	-1668.00085	-879.22455	1349.27075	-1265.36914	-838.68335	1134.66638	-1187.59656	-795.93921	1030.5116	-1178.41882	-730.79761	911.33313	-1187.97668	-671.6712	838.54187	-1234.67346	-693.56409	818.33313	-1189.93262	-642.07318	767.14844	-1207.0636	-819.24359	923.58624	-1533.13306	-839.07996	916.06555	-1296.34387	-985.84375	938.45227	-1500.08813	-994.93433	947.85132	-1350.03564	-799.45679	628.93463	-1596.57581	-722.73853	473.52838	-1549.99548	-691.64661	285.48105	-1566.13037	-625.96436	83.56596	-1541.53418	-651.96442	32.46139	-1506.10193	-475.07623	96.87298	-1509.50403	-940.70392	629.46143	-1266.00513	-971.94086	452.2608	-1304.58191	-1076.24902	287.66208	-1300.89746	-1183.27759	97.53514	-1345.93799	-1238.64014	78.7961	-1391.83154	-1056.24658	36.33564	-1369.32251	NaN	NaN	NaN	NaN	NaN	NaN	NaN	NaN	NaN	NaN	NaN	NaN	NaN	NaN	NaN	NaN	NaN	NaN	NaN	NaN	NaN	NaN	NaN	NaN	NaN	NaN	NaN
